<?xml version="1.0" encoding="UTF-8"?>
<svg id="Layer_1" xmlns="http://www.w3.org/2000/svg" viewBox="0 0 521.66 1011.1">
  <defs>
    <style>
      .cls-1 {
        fill: #fff;
      }
    </style>
  </defs>
  <g id="d37qhb">
    <path class="cls-1" d="M66.99,1010.67c50.93-155.37,101.86-310.74,152.87-466.36H0c2.46-7.87,4.85-15.63,7.3-23.36C60.53,353.07,113.77,185.19,167,17.31c1.31-4.13,2.93-8.18,3.85-12.39C171.68,1.16,173.36,0,177.28,0c87.83.12,175.67.08,263.5.07,1.98,0,3.96,0,6.71,0-49.53,118.67-98.8,236.69-148.31,355.3,74.28,1.99,147.71,3.96,222.48,5.97-151.62,217.11-302.69,433.44-453.77,649.77-.3-.14-.6-.29-.91-.43Z"/>
  </g>
</svg>