<?xml version="1.0" encoding="UTF-8"?>
<svg id="Layer_1" xmlns="http://www.w3.org/2000/svg" version="1.1" viewBox="0 0 160 160">
  <!-- Generator: Adobe Illustrator 29.4.0, SVG Export Plug-In . SVG Version: 2.1.0 Build 152)  -->
  <defs>
    <style>
      .st0 {
        fill: #cef17b;
      }

      .st1 {
        fill: #084734;
      }
    </style>
  </defs>
  <path class="st1" d="M90.81,25.24c.05-.24-.58-.47-.99-.66-.67-.3-1.35-.59-2.03-.86-1.37-.54-2.77-1-4.2-1.4-2.8-.78-5.68-1.3-8.58-1.55-3.82-.34-7.7-.19-11.45.61-8.06,1.73-15.66,6.88-18.86,14.48-.95,2.26-1.5,4.73-1.22,7.16.61,5.25,4.87,9.26,9.07,12.45,14.15,10.73,31.77,18.86,39.42,34.89,2.47,5.18,3.63,11.56.75,16.53-2.28,3.94-6.59,6.18-10.72,8.11-8.4,3.92-17.01,7.38-25.78,10.39,14.95,3.65,31.08,2.25,45.17-3.92,8.6-3.77,17.04-10.12,19.08-19.29,1.58-7.1-1.07-14.62-5.42-20.45-4.35-5.83-10.25-10.28-16.07-14.65-3.96-2.98-7.93-5.95-11.89-8.92-5.84-4.38-12.25-9.83-12.32-17.13-.02-2.24.61-4.43,1.74-6.36,1.61-2.76,4.12-4.92,6.88-6.49,1.44-.82,2.96-1.48,4.53-1.99.78-.25,1.58-.42,2.37-.63.35-.1.5-.2.52-.3h0Z"/>
  <path class="st1" d="M56.97,123.35c-3.92-2.01-8.22-3.3-12.6-3.79-.34-.04-.7-.07-1.01.07s-.55.51-.42.83c.1.24.36.36.6.46,2.52,1.05,5.09,1.95,7.72,2.69,1.75.49,3.63.91,5.36.35"/>
  <path class="st1" d="M58.4,127.58c-3.33,2.89-6.13,6.39-8.21,10.28-.16.3-.32.62-.31.97.01.34.27.7.62.7.26,0,.47-.2.65-.38,1.91-1.94,3.71-4,5.37-6.16,1.11-1.44,2.2-3.03,2.32-4.85"/>
  <path class="st0" d="M92.53,25.11c.05-.24-.58-.47-.99-.66-.67-.3-1.35-.59-2.03-.86-1.37-.54-2.77-1-4.2-1.4-2.8-.78-5.68-1.3-8.58-1.55-3.82-.34-7.7-.19-11.45.61-8.06,1.73-15.66,6.88-18.86,14.48-.95,2.26-1.5,4.73-1.22,7.16.61,5.25,4.87,9.26,9.07,12.45,14.15,10.73,31.77,18.86,39.42,34.89,2.47,5.18,3.63,11.56.75,16.53-2.28,3.94-6.59,6.18-10.72,8.11-8.4,3.92-17.01,7.38-25.78,10.39,14.95,3.65,31.08,2.25,45.17-3.92,8.6-3.77,17.04-10.12,19.08-19.29,1.58-7.1-1.07-14.62-5.42-20.45-4.35-5.83-10.25-10.28-16.07-14.65-3.96-2.98-7.93-5.95-11.89-8.92-5.84-4.38-12.25-9.83-12.32-17.13-.02-2.24.61-4.43,1.74-6.36,1.61-2.76,4.12-4.92,6.88-6.49,1.44-.82,2.96-1.48,4.53-1.99.78-.25,1.58-.42,2.37-.63.35-.1.5-.2.52-.3Z"/>
  <path class="st0" d="M58.7,123.22c-3.92-2.01-8.22-3.3-12.6-3.79-.34-.04-.7-.07-1.01.07s-.55.51-.42.83c.1.24.36.36.6.46,2.52,1.05,5.09,1.95,7.72,2.69,1.75.49,3.63.91,5.36.35"/>
  <path class="st0" d="M60.13,127.45c-3.33,2.89-6.13,6.39-8.21,10.28-.16.3-.32.62-.31.97.01.34.27.7.62.7.26,0,.47-.2.65-.38,1.91-1.94,3.71-4,5.37-6.16,1.11-1.44,2.2-3.03,2.32-4.85"/>
</svg>